<svg width="25" height="26" viewBox="0 0 25 26" fill="none" xmlns="http://www.w3.org/2000/svg">
<path d="M7.81185 11.375L14.5827 6.5M7.81185 14.625L14.5827 19.5M18.7493 5.41667C18.7493 6.61328 17.8166 7.58333 16.666 7.58333C15.5154 7.58333 14.5827 6.61328 14.5827 5.41667C14.5827 4.22005 15.5154 3.25 16.666 3.25C17.8166 3.25 18.7493 4.22005 18.7493 5.41667ZM18.7493 20.5833C18.7493 21.7799 17.8166 22.75 16.666 22.75C15.5154 22.75 14.5827 21.7799 14.5827 20.5833C14.5827 19.3867 15.5154 18.4167 16.666 18.4167C17.8166 18.4167 18.7493 19.3867 18.7493 20.5833ZM8.33268 13C8.33268 14.1966 7.39994 15.1667 6.24935 15.1667C5.09876 15.1667 4.16602 14.1966 4.16602 13C4.16602 11.8034 5.09876 10.8333 6.24935 10.8333C7.39994 10.8333 8.33268 11.8034 8.33268 13Z" stroke="currentColor" stroke-width="1.3" stroke-linecap="round" stroke-linejoin="round"/>
</svg>
